<?xml version="1.0"?>
<svg version="1.1" xmlns="http://www.w3.org/2000/svg" width="190" height="53" style=""><path fill="#" d="M31.016,35.74q-1.4,0-2.604-0.224q0.392,1.232,1.652,5.572q0.392,1.26,1.232,2.548q1.148,1.652,2.128,1.652q1.176,0,1.96-2.38q0.14-0.56,0.294-0.56t0.224,0.322t0.07,0.434q0,0.7-0.784,1.792q-1.036,1.54-2.268,1.54t-2.268-1.232t-2.03-4.494t-0.994-4.158q0-0.14,0.028-0.224q-3.36,4.452-4.816,5.88q-3.248,3.164-6.636,3.164q-2.38,0-2.38-1.792q0-0.896,0.56-1.974t1.372-1.89t1.428-0.812q0.112,0,0.112,0.056q0,0.14-0.7,0.7t-1.344,1.582t-0.644,1.862q0,1.484,1.988,1.484q3.724,0,10.248-8.736q0.364-0.476,0.616-0.672l-0.448-0.168q-0.364,0.14-0.588,0.14q-0.588,0-0.588-0.476q0-0.644,0.868-0.84q0.112-0.028,0.196-0.028q0.504,0,1.176,0.504q2.464-2.744,2.52-2.8q2.044-2.1,2.758-2.1t0.714,0.616q0,0.28-0.126,0.532t-0.294,0.252q-0.168,0.056-0.168-0.168q0-0.112,0.168-0.336q0.028-0.392-0.252-0.392q-0.896,0-4.34,4.76q0.84,0.056,1.4,0.056q6.496,0,8.12-3.36q0.336-0.728,0.336-1.344q0-1.232-1.12-2.128q-1.792-1.456-5.824-1.456t-8.232,2.044q-5.096,2.492-5.096,5.852q0,1.092,1.372,1.092t2.912-1.008t2.072-1.988q0.196-0.364,0.378-0.364t0.098,0.224q-0.532,1.568-2.366,2.674t-3.822,1.106t-1.988-1.26l0-0.196q0.42-3.668,4.494-6.23t9.814-2.562q5.348,0,7.588,1.848q1.344,1.12,1.344,2.632q0,0.644-0.308,1.4q-0.868,2.044-3.556,3.038t-5.656,0.994z M44.16676,32.142q0.378,0.266,0.378,0.63t-0.35,0.63t-0.77,0.266t-0.77-0.308t-0.35-0.7q0-0.784,1.064-0.784q0.42,0,0.798,0.266z M38.30076,43.608q-1.428,0-1.428-1.848q0-1.512,1.652-4.186t2.66-2.702q0.28,0,0.63,0.224t0.35,0.448q-0.14,0.196-0.336,0.434t-0.42,0.518t-0.616,0.798t-0.756,0.994q-2.1,2.716-2.1,3.738t0.7,1.022q0.588,0,1.596-0.644q2.352-1.456,3.724-3.192q0.504-0.644,0.686-0.644t0.182,0.224t-0.644,0.896t-1.022,1.064t-0.518,0.518t-0.518,0.476t-0.574,0.49t-0.56,0.42t-0.644,0.406t-0.644,0.294q-0.588,0.252-1.4,0.252z M52.16552,34.284l4.032-0.056q0.084,0.056,0.084,0.084q0,0.252-3.486,0.7t-3.766,0.532q-0.532,0.476-1.96,2.842t-1.428,3.458q0,1.036,1.428,1.036q0.672,0,1.764-0.42t1.68-0.784q1.568-0.98,3.36-2.884q0.392-0.392,0.532-0.392q0.084,0,0.084,0.168t-0.42,0.672q-1.456,1.792-3.276,2.884q-2.184,1.344-4.172,1.344q-0.868,0-1.414-0.378t-0.546-1.526t1.008-3.15t1.54-2.982q-0.392,0.084-0.672,0.084q-0.812,0-0.812-0.644q0-0.476,0.672-0.672q0.084,0,0.252-0.028l1.624,0q0.504-0.644,1.148-1.484q0.784-1.008,1.064-1.008t0.7,0.224t0.42,0.532t-1.344,1.82q0.728,0.028,1.904,0.028z M55.83828,43.664q-0.308,0-0.56-0.084q-1.792-0.504-1.792-2.016q0-1.96,2.464-4.536t4.424-2.576q0.644,0,1.05,0.35t0.406,0.854q0,1.568-2.366,2.996t-3.85,1.428q-0.224,0-0.392-0.056q-0.42,0.756-0.42,1.596q0,1.456,1.386,1.456t3.598-1.876q1.708-1.372,2.912-2.912q0.252-0.336,0.434-0.336t0.182,0.168t-0.224,0.476q-1.512,1.988-3.64,3.528t-3.612,1.54z M61.13028,35.6q0-0.336-0.714-0.336t-2.03,1.092q-1.764,1.456-2.744,3.052q0.168,0.056,0.364,0.056q1.064,0,2.842-1.134t2.226-2.478q0.056-0.14,0.056-0.252z M67.99504,42.88q-0.812,0.476-2.002,0.476t-1.82-0.784t-1.078-2.492q-0.504,0.504-0.7,0.504q-0.14,0-0.14-0.196t0.14-0.336q0.924-1.148,3.136-3.304l3.528-3.304q1.512-1.428,1.792-1.428q0.896,0,0.896,0.672q0,0.336-0.266,0.658t-0.392,0.504t-0.266,0.35q-0.504,0.868-1.022,3.584t-0.798,3.78q2.324-0.028,4.788-3.024q0.28-0.28,0.42-0.28t0.14,0.182t-0.252,0.49q-1.624,1.904-3.024,2.66q-0.84,0.42-2.184,0.7z M64.21504,39.772q0,0.952,0.63,1.554t1.414,0.602t1.204-0.308q0.56-0.308,1.106-2.576t0.658-4.004l0.112-0.952q-1.54,1.148-3.29,2.968t-1.806,2.408q-0.028,0.168-0.028,0.308z M80.7678,43.188q-1.652,0-1.652-1.932q0-1.092,0.77-2.422t1.89-3.122q-3.584,1.792-6.496,5.292q-1.624,2.436-1.904,2.436q-0.812,0-0.812-0.476q0-0.252,0.336-0.896q2.716-4.844,4.116-7.084q3.332-5.348,4.704-5.796q0.056-0.028,0.112-0.028q0.364,0,0.504,0.588q-0.084,0.588-2.912,4.256q-2.94,3.724-3.332,4.872q1.036-0.756,3.612-2.548q2.772-1.932,3.668-1.932t0.896,0.7q0,0.112-0.014,0.154t-1.946,2.646t-1.932,3.836q0,0.644,0.476,0.644q1.512-0.056,4.536-3.64q0.252-0.252,0.378-0.252t0.126,0.168q0,0.56-2.772,3.024q-1.736,1.512-2.352,1.512z M114.82532,31.316q-1.036,0.42-1.778,0.42t-0.742-0.308q0-0.196,0.826-0.224t1.19-0.196q1.064-0.56,1.064-1.652q0-0.56-0.308-1.176q-0.896-1.596-4.34-1.596q-1.988,0-3.976,0.602t-3.332,1.848t-1.344,2.31q0,1.624,3.22,2.38l3.304,0.616q1.988,0.364,2.968,1.008q1.288,0.784,1.288,2.24q0,0.588-0.196,1.26q-0.896,3.024-4.62,4.62q-3.108,1.372-7.336,1.372q-1.204,0-2.1-0.112q0.896,0.504,2.352,0.868q0.112,0.028,0.112,0.112q0,0.252-0.588,0.252q-1.148,0-2.856-1.372q-2.324-0.364-3.472-1.288q-0.728-0.588-1.344-1.736t-0.616-2.072t0.364-1.54q0.84-1.484,2.128-1.484q0.98,0,1.148,1.652q0.392,3.192,0.532,3.64q0.42,1.372,1.428,2.324q1.176,0.252,2.548,0.252q3.024,0,5.936-1.204t4.2-3.416q0.532-0.868,0.532-1.54q0-1.316-2.324-2.044l-4.928-1.12q-1.512-0.364-2.422-1.204t-0.91-1.932q0-1.68,2.1-3.36q1.596-1.288,3.906-2.002t4.536-0.714t3.682,0.644q1.876,0.868,1.876,2.534t-1.708,2.338z M96.79332,43.804q-1.624-1.792-2.072-4.9q-0.252-1.764-0.476-1.764t-0.42,0.126t-0.392,0.546t-0.196,1.092q0,2.156,1.512,3.696q0.756,0.784,2.044,1.204z M124.15408,34.928l0.392-0.084q0.308,0,0.588,0.252t0.28,0.392t-1.736,2.702t-1.736,3.57q0,0.084,0.028,0.168q0.14,0.644,0.616,0.644q1.456,0,5.32-4.816q0.084-0.112,0.196-0.112t0.112,0.21t-0.252,0.546q-3.584,4.788-5.46,4.788q-0.252,0-0.476-0.084q-1.232-0.476-1.232-1.848q0-0.476,0.112-0.952l-1.736,1.68q-1.652,1.456-2.394,1.456t-1.414-0.476q-0.756-0.56-0.756-1.484q0-2.044,2.856-4.886t5.236-2.842q0.924,0,1.232,0.644q0.084,0.224,0.14,0.378t0.084,0.154z M115.78208,41.816q0,1.008,0.7,1.008q1.624,0,4.424-3.556l2.968-4.088q-0.224-0.392-0.728-0.392q-1.708,0-4.536,2.646t-2.828,4.382z M126.06284,46.548q1.344,1.68,2.324,1.68q1.596,0,3.444-2.548q1.344-1.876,2.632-4.732l1.064-2.576l-4.116,3.22q-1.904,1.484-3.052,1.484q-0.616,0-0.98-0.42t-0.364-0.952q0-1.204,2.072-3.962t3.024-2.758t0.952,0.644q0,0.252-2.478,2.898t-2.478,3.57q0,0.364,0.476,0.364q0.896,0,3.598-2.1t4.074-3.472q0.308-0.364,0.868-1.092q0.532-0.616,1.176-0.616t0.644,0.616q0,0.112-1.26,1.988t-1.316,1.988q-0.868,1.68-2.66,4.9q-2.716,4.368-5.432,4.368q-0.896,0-1.568-0.77t-0.644-1.722z M144.9676,43.636q-2.212,0-3.752-3.5q-0.392,0.588-1.764,3.304q-1.008-0.392-1.008-1.064q0-1.204,3.612-6.608t4.956-6.356q0.112-0.084,0.448-0.084q0.868,0,0.868,0.448q0,0.224-1.946,2.52t-2.17,2.772q2.548-1.316,4.06-1.316q0.868,0,1.484,0.7q0.588,0.588,0.588,1.204l0,0.168q-0.224,1.596-2.24,2.632q-1.624,0.868-3.024,0.868t-1.96-0.364q-0.168-0.028-0.266,0.084t-0.042,0.28q0.784,3.472,2.604,3.472q0.952,0,2.45-1.064t3.122-2.996q0.196-0.196,0.35-0.196t0.154,0.154t-0.196,0.434q-1.512,1.848-2.856,2.912q-2.044,1.596-3.472,1.596z M148.9996,35.068q0-0.224-0.252-0.448t-0.532-0.224q-1.512,0-3.626,1.26t-2.59,2.856q0.252,0,1.344,0.084q1.26,0,3.304-1.036q2.352-1.176,2.352-2.492z M160.79236,34.928l0.392-0.084q0.308,0,0.588,0.252t0.28,0.392t-1.736,2.702t-1.736,3.57q0,0.084,0.028,0.168q0.14,0.644,0.616,0.644q1.456,0,5.32-4.816q0.084-0.112,0.196-0.112t0.112,0.21t-0.252,0.546q-3.584,4.788-5.46,4.788q-0.252,0-0.476-0.084q-1.232-0.476-1.232-1.848q0-0.476,0.112-0.952l-1.736,1.68q-1.652,1.456-2.394,1.456t-1.414-0.476q-0.756-0.56-0.756-1.484q0-2.044,2.856-4.886t5.236-2.842q0.924,0,1.232,0.644q0.084,0.224,0.14,0.378t0.084,0.154z M152.42036,41.816q0,1.008,0.7,1.008q1.624,0,4.424-3.556l2.968-4.088q-0.224-0.392-0.728-0.392q-1.708,0-4.536,2.646t-2.828,4.382z M169.98112,43.44q-2.1,0-2.1-2.324q0-1.176,0.616-2.576t1.344-2.352q-0.14,0.028-0.364,0.028q-0.672,0-1.12-0.952l-2.072,2.688q-1.736,2.156-2.016,2.156q-0.14,0-0.14-0.112q0-0.28,0.476-0.812q2.436-2.828,3.444-4.788q0.644-2.436,1.624-2.436q0.644,0,0.644,0.56t-0.7,1.428l-0.672,0.896q0,0.588,0.868,0.588q0.504,0,1.12-0.364l0.728-0.448q0.056-0.028,0.28-0.028t0.476,0.28t0.168,0.504l-1.932,2.436q-1.792,2.296-1.792,3.626t1.232,1.33q1.288,0,3.164-1.372q1.12-0.812,2.044-1.82q0.868-1.008,0.952-1.008q0.196,0,0.196,0.21t-0.252,0.49l-0.896,1.008q-0.756,0.784-1.68,1.512q-2.212,1.652-3.64,1.652z"/><path fill="#" d=""/></svg>
